<svg id="Layer_1" data-name="Layer 1" xmlns="http://www.w3.org/2000/svg" viewBox="0 0 131.42 100"><defs><style>.cls-1{fill:#25cc80;}.cls-2{fill:#fff;}.cls-3,.cls-4{fill:#215e54;}.cls-4{fill-rule:evenodd;}</style></defs><title>gab-logo</title><path class="cls-1" d="M123.13,38h0A22.83,22.83,0,1,0,86.24,11.2C79.76,10.45,78.15,26,65.89,26h-.42C53.17,26,51.59,10.37,45.07,11.21A22.83,22.83,0,1,0,8.31,37.94h0C-14.23,65,10.49,100,65.61,100h.13C120.86,100,145.67,65.07,123.13,38Z"/><path class="cls-2" d="M117.6,34.4a16.29,16.29,0,1,1,4.1-10.78A16.25,16.25,0,0,1,117.6,34.4Z"/><path class="cls-3" d="M105.39,15a8.66,8.66,0,1,0,8.66,8.66A8.66,8.66,0,0,0,105.39,15ZM103.06,23a2.36,2.36,0,1,1,2.36-2.36A2.36,2.36,0,0,1,103.06,23Z"/><path class="cls-2" d="M37.63,33.62a16.29,16.29,0,1,1,4.1-10.78A16.25,16.25,0,0,1,37.63,33.62Z"/><path class="cls-3" d="M25.42,14.17a8.66,8.66,0,1,0,8.66,8.66A8.66,8.66,0,0,0,25.42,14.17Zm-2.33,8.06a2.36,2.36,0,1,1,2.36-2.36A2.36,2.36,0,0,1,23.09,22.23Z"/><path class="cls-4" d="M65.68,74.8c-12.94,0-24.87-3.9-29.36-5.56a.4.4,0,0,0-.39.69c6.12,4.47,25.3,9.6,29.75,9.6s23.63-5.13,29.75-9.6a.4.4,0,0,0-.39-.69C90.55,70.9,78.62,74.8,65.68,74.8Z"/><path class="cls-3" d="M49.14,51.67l3.37-5.55a1.59,1.59,0,0,1,2.7,0l3.37,5.55Z"/><path class="cls-3" d="M72.77,51.67l3.37-5.55a1.59,1.59,0,0,1,2.7,0l3.37,5.55Z"/><path class="cls-3" d="M65.68,7.09s-12.6,0-18.9,3.15c4.72,0,7.87,12.6,18.9,12.6s14.17-12.6,18.9-12.6C78.28,7.09,65.68,7.09,65.68,7.09Z"/></svg>